<?xml version="1.0" standalone="no"?><!DOCTYPE svg PUBLIC "-//W3C//DTD SVG 1.1//EN" "http://www.w3.org/Graphics/SVG/1.1/DTD/svg11.dtd"><svg t="1565056487114" class="icon" viewBox="0 0 1024 1024" version="1.1" xmlns="http://www.w3.org/2000/svg" p-id="7403" xmlns:xlink="http://www.w3.org/1999/xlink" width="48" height="48"><defs><style type="text/css"></style></defs><path d="M170.88 138.66496c-22.4 0-37.33504 14.93504-37.33504 37.33504v186.66496c0 22.4 14.93504 37.33504 37.33504 37.33504h186.66496c22.4 0 37.33504-14.93504 37.33504-37.33504V176c0-22.4-14.93504-37.33504-37.33504-37.33504H170.88z m0-74.66496h186.66496c63.46752 0 112 48.53248 112 112v186.66496c0 63.46752-48.53248 112-112 112H170.88c-63.46752 0-112-48.53248-112-112V176c0-63.46752 48.53248-112 112-112z m0 560c-22.4 0-37.33504 14.93504-37.33504 37.33504v186.66496c0 22.4 14.93504 37.33504 37.33504 37.33504h186.66496c22.4 0 37.33504-14.93504 37.33504-37.33504v-186.66496c0-22.4-14.93504-37.33504-37.33504-37.33504H170.88z m0-74.66496h186.66496c63.46752 0 112 48.53248 112 112v186.66496c0 63.46752-48.53248 112-112 112H170.88c-63.46752 0-112-48.53248-112-112v-186.66496c0-63.46752 48.53248-112 112-112z m485.33504-410.67008c-22.4 0-37.33504 14.93504-37.33504 37.33504v186.66496c0 22.4 14.93504 37.33504 37.33504 37.33504h186.66496c22.4 0 37.33504-14.93504 37.33504-37.33504V176c0-22.4-14.93504-37.33504-37.33504-37.33504h-186.66496z m0-74.66496h186.66496c63.46752 0 112 48.53248 112 112v186.66496c0 63.46752-48.53248 112-112 112h-186.66496c-63.46752 0-112-48.53248-112-112V176c0-63.46752 48.53248-112 112-112z m0 560c-22.4 0-37.33504 14.93504-37.33504 37.33504v186.66496c0 22.4 14.93504 37.33504 37.33504 37.33504h186.66496c22.4 0 37.33504-14.93504 37.33504-37.33504v-186.66496c0-22.4-14.93504-37.33504-37.33504-37.33504h-186.66496z m0-74.66496h186.66496c63.46752 0 112 48.53248 112 112v186.66496c0 63.46752-48.53248 112-112 112h-186.66496c-63.46752 0-112-48.53248-112-112v-186.66496c0-63.46752 48.53248-112 112-112z" p-id="7404" fill="#2EBFFF"></path></svg>